HIERARCHY
ROOT Hips
{
  OFFSET 5.84602e-005 68.8428 3.50346
  CHANNELS 6 Xposition Yposition Zposition Zrotation Xrotation Yrotation
  JOINT Spine
  {
    OFFSET 0 8.597 -4.6522
    CHANNELS 3 Zrotation Xrotation Yrotation
    JOINT Spine1
    {
      OFFSET 0 7.8454 0.4098
      CHANNELS 3 Zrotation Xrotation Yrotation
      JOINT Spine2
      {
        OFFSET 0 9.7078 -2.1609
        CHANNELS 3 Zrotation Xrotation Yrotation
        JOINT Neck
        {
          OFFSET 0 21.8761 -0.4549
          CHANNELS 3 Zrotation Xrotation Yrotation
          JOINT Head
          {
            OFFSET 0 12.3537 3.3602
            CHANNELS 3 Zrotation Xrotation Yrotation
            End Site
            {
              OFFSET 0.0001 18.9506 0.5657
            }
          }
        }
        JOINT LeftShoulder
        {
          OFFSET 2.2086 21.1115 7.2329
          CHANNELS 3 Zrotation Xrotation Yrotation
          JOINT LeftArm
          {
            OFFSET 13.1193 3.0282 -4.8998
            CHANNELS 3 Zrotation Xrotation Yrotation
            JOINT LeftForeArm
            {
              OFFSET 27.4081 -0.0973053 -0.2375
              CHANNELS 3 Zrotation Xrotation Yrotation
              JOINT LeftHand
              {
                OFFSET 22.8641 0.0662994 -0.1369
                CHANNELS 3 Zrotation Xrotation Yrotation
                JOINT LeftHandIndex1
                {
                  OFFSET 8.8614 0.775009 2.4612
                  CHANNELS 3 Zrotation Xrotation Yrotation
                  JOINT LeftHandIndex2
                  {
                    OFFSET 3.3146 -0.808304 0.5841
                    CHANNELS 3 Zrotation Xrotation Yrotation
                    JOINT LeftHandIndex3
                    {
                      OFFSET 2.2628 -0.552002 0.3989
                      CHANNELS 3 Zrotation Xrotation Yrotation
                      End Site
                      {
                        OFFSET 1.6102 -0.4807 0.2612
                      }
                    }
                  }
                }
                JOINT LeftHandMiddle1
                {
                  OFFSET 8.9937 0.895004 0.2143
                  CHANNELS 3 Zrotation Xrotation Yrotation
                  JOINT LeftHandMiddle2
                  {
                    OFFSET 4.0984 0.0113983 -0.0242
                    CHANNELS 3 Zrotation Xrotation Yrotation
                    JOINT LeftHandMiddle3
                    {
                      OFFSET 2.2716 0.00689697 -0.0138001
                      CHANNELS 3 Zrotation Xrotation Yrotation
                      End Site
                      {
                        OFFSET 2.0404 -0.1441 0.0027
                      }
                    }
                  }
                }
                JOINT LeftHandRing1
                {
                  OFFSET 8.5234 0.597198 -2.0164
                  CHANNELS 3 Zrotation Xrotation Yrotation
                  JOINT LeftHandRing2
                  {
                    OFFSET 3.7188 -0.188293 -0.2328
                    CHANNELS 3 Zrotation Xrotation Yrotation
                    JOINT LeftHandRing3
                    {
                      OFFSET 2.1191 -0.106598 -0.1332
                      CHANNELS 3 Zrotation Xrotation Yrotation
                      End Site
                      {
                        OFFSET 1.8737 -0.2304 -0.0886
                      }
                    }
                  }
                }
                JOINT LeftHandPinky1
                {
                  OFFSET 7.9094 -0.601089 -3.4825
                  CHANNELS 3 Zrotation Xrotation Yrotation
                  JOINT LeftHandPinky2
                  {
                    OFFSET 2.2874 -0.477005 -0.6314
                    CHANNELS 3 Zrotation Xrotation Yrotation
                    JOINT LeftHandPinky3
                    {
                      OFFSET 1.6774 -0.349396 -0.4633
                      CHANNELS 3 Zrotation Xrotation Yrotation
                      End Site
                      {
                        OFFSET 1.4888 -0.4091 -0.3416
                      }
                    }
                  }
                }
                JOINT LeftHandThumb1
                {
                  OFFSET 1.833 -1.3875 1.3896
                  CHANNELS 3 Zrotation Xrotation Yrotation
                  JOINT LeftHandThumb2
                  {
                    OFFSET 3.4129 -1.121 2.5732
                    CHANNELS 3 Zrotation Xrotation Yrotation
                    JOINT LeftHandThumb3
                    {
                      OFFSET 2.2474 -0.804199 1.6192
                      CHANNELS 3 Zrotation Xrotation Yrotation
                      End Site
                      {
                        OFFSET 1.6527 -0.5689 1.1317
                      }
                    }
                  }
                }
              }
            }
          }
        }
        JOINT RightShoulder
        {
          OFFSET -2.2086 21.1115 7.2329
          CHANNELS 3 Zrotation Xrotation Yrotation
          JOINT RightArm
          {
            OFFSET -13.1216 3.0287 -4.9007
            CHANNELS 3 Zrotation Xrotation Yrotation
            JOINT RightForeArm
            {
              OFFSET -27.4081 -0.0973053 -0.2375
              CHANNELS 3 Zrotation Xrotation Yrotation
              JOINT RightHand
              {
                OFFSET -22.8641 0.0664063 -0.1369
                CHANNELS 3 Zrotation Xrotation Yrotation
                JOINT RightHandIndex1
                {
                  OFFSET -8.8614 0.774994 2.4612
                  CHANNELS 3 Zrotation Xrotation Yrotation
                  JOINT RightHandIndex2
                  {
                    OFFSET -3.3146 -0.808304 0.5841
                    CHANNELS 3 Zrotation Xrotation Yrotation
                    JOINT RightHandIndex3
                    {
                      OFFSET -2.2628 -0.552002 0.3989
                      CHANNELS 3 Zrotation Xrotation Yrotation
                      End Site
                      {
                        OFFSET -1.6102 -0.4807 0.2612
                      }
                    }
                  }
                }
                JOINT RightHandMiddle1
                {
                  OFFSET -8.9937 0.894989 0.2143
                  CHANNELS 3 Zrotation Xrotation Yrotation
                  JOINT RightHandMiddle2
                  {
                    OFFSET -4.0984 0.0113983 -0.0242
                    CHANNELS 3 Zrotation Xrotation Yrotation
                    JOINT RightHandMiddle3
                    {
                      OFFSET -2.2716 0.00691223 -0.0138001
                      CHANNELS 3 Zrotation Xrotation Yrotation
                      End Site
                      {
                        OFFSET -2.0404 -0.1441 0.0027
                      }
                    }
                  }
                }
                JOINT RightHandRing1
                {
                  OFFSET -8.5234 0.597198 -2.0164
                  CHANNELS 3 Zrotation Xrotation Yrotation
                  JOINT RightHandRing2
                  {
                    OFFSET -3.7188 -0.188309 -0.2328
                    CHANNELS 3 Zrotation Xrotation Yrotation
                    JOINT RightHandRing3
                    {
                      OFFSET -2.1191 -0.106598 -0.1332
                      CHANNELS 3 Zrotation Xrotation Yrotation
                      End Site
                      {
                        OFFSET -1.8737 -0.2304 -0.0886
                      }
                    }
                  }
                }
                JOINT RightHandPinky1
                {
                  OFFSET -7.9094 -0.601105 -3.4825
                  CHANNELS 3 Zrotation Xrotation Yrotation
                  JOINT RightHandPinky2
                  {
                    OFFSET -2.2874 -0.477005 -0.6314
                    CHANNELS 3 Zrotation Xrotation Yrotation
                    JOINT RightHandPinky3
                    {
                      OFFSET -1.6774 -0.349396 -0.4633
                      CHANNELS 3 Zrotation Xrotation Yrotation
                      End Site
                      {
                        OFFSET -1.4888 -0.4091 -0.3416
                      }
                    }
                  }
                }
                JOINT RightHandThumb1
                {
                  OFFSET -1.833 -1.38751 1.3896
                  CHANNELS 3 Zrotation Xrotation Yrotation
                  JOINT RightHandThumb2
                  {
                    OFFSET -3.41299 -1.12099 2.5732
                    CHANNELS 3 Zrotation Xrotation Yrotation
                    JOINT RightHandThumb3
                    {
                      OFFSET -2.24741 -0.804108 1.6192
                      CHANNELS 3 Zrotation Xrotation Yrotation
                      End Site
                      {
                        OFFSET -1.6527 -0.5689 1.1317
                      }
                    }
                  }
                }
              }
            }
          }
        }
      }
    }
  }
  JOINT RightUpLeg
  {
    OFFSET -9.1966 3.8861 -0.7581
    CHANNELS 3 Zrotation Xrotation Yrotation
    JOINT RightLeg
    {
      OFFSET -0.7359 -41.0265 0
      CHANNELS 3 Zrotation Xrotation Yrotation
      JOINT RightFoot
      {
        OFFSET 0 -40.2855 0
        CHANNELS 3 Zrotation Xrotation Yrotation
        JOINT RightToeBase
        {
          OFFSET 0 -5.6122 11.7359
          CHANNELS 3 Zrotation Xrotation Yrotation
          End Site
          {
            OFFSET 0 0 7.8731
          }
        }
      }
    }
  }
  JOINT LeftUpLeg
  {
    OFFSET 9.1965 3.8864 -0.7581
    CHANNELS 3 Zrotation Xrotation Yrotation
    JOINT LeftLeg
    {
      OFFSET 0.7359 -41.0268 0
      CHANNELS 3 Zrotation Xrotation Yrotation
      JOINT LeftFoot
      {
        OFFSET 0 -40.2855 0
        CHANNELS 3 Zrotation Xrotation Yrotation
        JOINT LeftToeBase
        {
          OFFSET 0 -5.6122 11.7359
          CHANNELS 3 Zrotation Xrotation Yrotation
          End Site
          {
            OFFSET 0 0 7.8731
          }
        }
      }
    }
  }
}
MOTION
Frames:	5
Frame Time:	0.0333333
5.84602e-005 68.8428 3.50346 0 0 -0 0 0 -0 0 0 -0 0 0 -0 0 0 -0.00430691 -0 0 7.76503e-019 0 0 -0.00430691 -0 0 7.76503e-019 -0 0 7.76503e-019 -0 0 7.76503e-019 -0 0 7.76503e-019 -0 0 7.76503e-019 -0 0 7.76503e-019 -0 0 7.76503e-019 -0.0146107 -8.87604e-005 -2.63531e-007 3.17986e-019 0 1.55301e-018 -0 0 7.76503e-019 -0.0187548 -0.0011759 5.87955e-005 -1.94376e-018 -1.94126e-019 -1.55301e-018 -0 0 7.76503e-019 -0.0122981 -0.00325605 0.000675344 -9.18921e-019 0 7.76503e-019 -0 0 7.76503e-019 -0 0 7.76503e-019 -0 0 7.76503e-019 0 0 -0.00430691 -0 0 7.76503e-019 -0 0 7.76503e-019 -0 0 7.76503e-019 -0 0 7.76503e-019 -0 0 7.76503e-019 -0 0 7.76503e-019 -0 0 7.76503e-019 0.0149955 -9.10982e-005 2.87063e-007 4.63407e-018 3.63986e-020 7.76503e-019 -0 0 7.76503e-019 0.0189974 -0.00119111 -5.96513e-005 2.19371e-018 3.88251e-019 -7.76503e-019 -0 0 7.76503e-019 0.0122398 -0.0032405 -0.000673759 -2.55325e-018 1.55301e-018 2.32951e-018 -0 0 7.76503e-019 -0 0 7.76503e-019 -0 0 7.76503e-019 3.39842 1.33031 -0.0637918 -5.65207e-008 0.834868 -0.000436188 -3.39935 -2.16518 -0.0642563 -8.89002e-024 -1.18485e-023 -1.48106e-024 -3.39844 1.35642 0.0640283 -3.18788e-007 0.782166 -0.000588827 3.39931 -2.13858 0.0634662 1.1399e-023 0 -0 
39.7173 -5.52994 50.8286 0 78.9991 -0 -0.304426 0.671671 -0.21563 -0.606384 1.34445 -0.427732 -0.606384 1.34448 -0.427732 -0.00324718 1.9947 -44.0016 -0.0581443 -15.3423 -26.0165 -7.85111 0.498172 -5.59246 -33.8419 -45.9124 -9.46091 35.4567 -17.7939 -44.8088 8.52941 -23.9322 -30.8615 1.98785e-016 8.94531e-016 3.18055e-015 1.98785e-016 8.94531e-016 6.36111e-015 3.97569e-016 8.94531e-016 6.36111e-015 1.98785e-016 8.94531e-016 3.18055e-015 -0.01461 -8.87509e-005 8.8881e-007 -4.96564e-032 2.98177e-016 9.54166e-015 1.98785e-016 8.94531e-016 3.18055e-015 -0.0187641 -0.00117666 5.62827e-005 0 0 -6.36111e-015 1.98785e-016 8.94531e-016 3.18055e-015 -0.0122663 -0.00324648 0.000675926 1.98785e-016 2.98177e-016 6.36111e-015 1.98785e-016 8.94531e-016 3.18055e-015 1.98785e-016 8.94531e-016 6.36111e-015 3.97569e-016 8.94531e-016 6.36111e-015 49.9036 -10.6981 -9.81943 46.1197 -39.753 21.4245 -33.5882 -19.5095 36.9696 0.2781 -5.79887 32.4957 0 0 -1.59028e-015 -4.41391e-032 -7.95139e-016 -3.18055e-015 3.97569e-016 -1.59028e-015 -3.18055e-015 0 0 -1.59028e-015 0.0149984 -9.13488e-005 -5.81993e-007 3.97569e-016 -2.38542e-015 -3.18055e-015 0 0 -1.59028e-015 0.0189892 -0.00119088 -5.9687e-005 1.39149e-015 -7.95139e-016 3.18055e-015 0 0 -1.59028e-015 0.0122715 -0.00324868 -0.000675816 -3.97569e-016 -7.95139e-016 -0 0 0 -1.59028e-015 -4.41391e-032 -7.95139e-016 -3.18055e-015 3.97569e-016 -1.59028e-015 -3.18055e-015 -4.46507 5.54973 -43.3213 7.04245 17.3406 -21.9682 -4.07359 43.5914 -3.11544 -1.80968e-006 1.45595e-007 -5.88109e-006 1.93059 11.1587 46.3503 -4.80037 3.36886 20.7712 6.87592 40.8687 -5.56962 -5.78758e-006 -2.20513e-006 -6.18147e-006 
39.7178 -5.56745 50.8566 0 78.6659 -0 -0.323065 0.934002 -0.211871 -0.642803 1.86918 -0.418553 -0.642802 1.86916 -0.418553 -0.00303858 1.3844 -44.0015 -0.331174 -15.5309 -26.6507 -7.37955 1.47678 -5.68913 -33.8569 -45.9209 -9.87539 35.4508 -17.7888 -44.7955 10.0404 -25.124 -29.8276 3.31043e-032 5.96354e-016 -3.18055e-015 1.98785e-016 5.96354e-016 3.18055e-015 -1.98785e-016 5.96354e-016 3.18055e-015 3.31043e-032 5.96354e-016 -3.18055e-015 -0.014612 -8.88082e-005 3.8524e-007 -1.98785e-016 2.98177e-016 -3.18055e-015 3.31043e-032 5.96354e-016 -3.18055e-015 -0.0187539 -0.00117567 6.29511e-005 2.20695e-032 3.97569e-016 -3.18055e-015 3.31043e-032 5.96354e-016 -3.18055e-015 -0.0122742 -0.00324931 0.00068031 1.98785e-016 -3.97569e-016 -3.18055e-015 3.31043e-032 5.96354e-016 -3.18055e-015 1.98785e-016 5.96354e-016 3.18055e-015 -1.98785e-016 5.96354e-016 3.18055e-015 49.7109 -11.0391 -8.27951 45.048 -39.6555 20.1294 -33.2947 -19.202 36.7711 -0.542289 -6.80979 32.2891 3.97569e-016 1.59028e-015 -1.59028e-015 5.96354e-016 1.59028e-015 -1.59028e-015 5.96354e-016 1.59028e-015 -1.59028e-015 3.97569e-016 1.59028e-015 -1.59028e-015 0.0150025 -9.07833e-005 -1.33782e-006 1.19271e-015 0 1.59028e-015 3.97569e-016 1.59028e-015 -1.59028e-015 0.0189909 -0.00119107 -6.08672e-005 3.97569e-016 -7.95139e-016 -3.18055e-015 3.97569e-016 1.59028e-015 -1.59028e-015 0.012258 -0.00324553 -0.000674689 1.98785e-016 -7.95139e-016 1.59028e-015 3.97569e-016 1.59028e-015 -1.59028e-015 5.96354e-016 1.59028e-015 -1.59028e-015 5.96354e-016 1.59028e-015 -1.59028e-015 -4.6182 6.12509 -44.4298 7.04148 17.3146 -22.0241 -5.50849 43.5468 -1.41181 -1.16709e-005 6.86335e-006 -5.15034e-006 2.01268 11.5685 46.5121 -4.9777 3.39714 20.7923 7.13796 40.83 -5.84315 -1.34578e-005 -8.1826e-006 -1.29615e-007 
39.7182 -5.60482 50.8847 0 78.3326 -0 -0.341763 1.19927 -0.208692 -0.679376 2.39973 -0.410359 -0.679376 2.39977 -0.410359 -0.00294841 0.773741 -44.0016 -0.606754 -15.7168 -27.2869 -6.90542 2.45606 -5.7941 -33.8719 -45.9293 -10.29 35.4448 -17.7836 -44.7822 11.5969 -26.2952 -28.7439 1.98785e-016 -2.98177e-016 -3.18055e-015 3.97569e-016 -2.98177e-016 -3.18055e-015 1.98785e-016 -2.98177e-016 -3.18055e-015 1.98785e-016 -2.98177e-016 -3.18055e-015 -0.0146106 -8.87184e-005 -3.83408e-007 -3.97569e-016 9.93923e-017 -1.27222e-014 1.98785e-016 -2.98177e-016 -3.18055e-015 -0.0187554 -0.00117585 6.30084e-005 3.97569e-016 1.98785e-016 6.36111e-015 1.98785e-016 -2.98177e-016 -3.18055e-015 -0.0122648 -0.0032473 0.000673872 -1.98785e-016 -3.97569e-016 -3.18055e-015 1.98785e-016 -2.98177e-016 -3.18055e-015 3.97569e-016 -2.98177e-016 -3.18055e-015 1.98785e-016 -2.98177e-016 -3.18055e-015 49.5272 -11.3855 -6.73685 43.9797 -39.5393 18.8373 -33.0005 -18.8953 36.5713 -1.36994 -7.81977 32.067 -8.82781e-032 3.18055e-015 1.59028e-015 -8.82781e-032 3.18055e-015 1.59028e-015 -1.98785e-016 3.18055e-015 -0 -8.82781e-032 3.18055e-015 1.59028e-015 0.0149943 -9.16675e-005 -6.9542e-007 3.97569e-016 3.97569e-015 3.18055e-015 -8.82781e-032 3.18055e-015 1.59028e-015 0.0190043 -0.00119194 -5.89351e-005 9.93923e-016 -2.38542e-015 -1.59028e-015 -8.82781e-032 3.18055e-015 1.59028e-015 0.0122739 -0.00324943 -0.000675969 -1.19271e-015 7.95139e-016 -0 -8.82781e-032 3.18055e-015 1.59028e-015 -8.82781e-032 3.18055e-015 1.59028e-015 -1.98785e-016 3.18055e-015 -0 -4.76097 6.70366 -45.5402 7.04055 17.2903 -22.0794 -6.94072 43.4703 0.289899 9.54166e-015 6.36111e-015 2.78299e-015 2.04853 12.0199 46.6811 -5.15438 3.30338 20.8148 7.43121 40.8471 -6.13212 3.78008e-006 -6.11884e-006 3.19794e-006 
39.7186 -5.64204 50.9131 0 77.9993 -0 -0.360518 1.46715 -0.205732 -0.716114 2.93556 -0.40242 -0.716114 2.93558 -0.40242 -0.00284855 0.163167 -44.0017 -0.884836 -15.8997 -27.9248 -6.42847 3.4357 -5.90742 -33.8871 -45.9376 -10.7048 35.4388 -17.7785 -44.7688 13.2003 -27.4434 -27.6092 4.44834e-008 8.31907e-008 2.19995e-006 -1.22586e-008 2.01071e-007 3.60047e-006 4.53338e-008 2.8141e-008 -4.22801e-010 4.44834e-008 8.31907e-008 2.19995e-006 -0.0146132 -8.86425e-005 7.80583e-006 4.53339e-008 2.8141e-008 -4.19273e-010 4.44834e-008 8.31907e-008 2.19995e-006 -0.0187472 -0.00117504 6.96363e-005 4.53339e-008 2.8141e-008 -4.18679e-010 4.44834e-008 8.31907e-008 2.19995e-006 -0.0122399 -0.00323983 0.000670882 4.41297e-008 6.48102e-010 -1.40158e-006 4.44834e-008 8.31907e-008 2.19995e-006 -1.22586e-008 2.01071e-007 3.60047e-006 4.53338e-008 2.8141e-008 -4.22801e-010 49.3527 -11.737 -5.19183 42.9157 -39.4044 17.549 -32.7056 -18.5895 36.3701 -2.20522 -8.82829 31.8291 -0 0 3.18055e-015 -1.98785e-016 -1.59028e-015 3.18055e-015 -7.95139e-016 -1.59028e-015 1.59028e-015 -0 0 3.18055e-015 0.0150018 -9.08897e-005 -2.41062e-007 5.96354e-016 -1.59028e-015 -3.18055e-015 -0 0 3.18055e-015 0.0189925 -0.00119071 -5.99932e-005 7.95139e-016 -7.95139e-016 1.59028e-015 -0 0 3.18055e-015 0.0122744 -0.00325009 -0.000677395 3.97569e-016 0 -3.18055e-015 -0 0 3.18055e-015 -1.98785e-016 -1.59028e-015 3.18055e-015 -7.95139e-016 -1.59028e-015 1.59028e-015 -4.89327 7.28517 -46.6524 7.03966 17.2675 -22.134 -8.36796 43.3622 1.98731 6.3321e-007 -2.76239e-006 1.73686e-006 2.08873 12.4657 46.8496 -5.33109 3.22564 20.8366 7.71955 40.8559 -6.41862 9.05892e-006 7.57706e-006 -1.13843e-006 
